<?xml version="1.0" encoding="UTF-8"?>
<svg xmlns="http://www.w3.org/2000/svg" width="200" height="200" viewBox="0 0 200 200">
  <!-- Background with casino vibes -->
  <circle cx="100" cy="100" r="95" fill="url(#casinoGlow)" stroke="url(#goldBorder)" stroke-width="4"/>
  
  <!-- Body (suit jacket) -->
  <ellipse cx="100" cy="145" rx="50" ry="50" fill="url(#suitGradient)"/>
  
  <!-- Shirt -->
  <ellipse cx="100" cy="135" rx="35" ry="35" fill="url(#shirtGradient)"/>
  
  <!-- Tie (Trump's signature red tie) -->
  <polygon points="100,120 95,130 100,160 105,130" fill="url(#trumpTieGradient)"/>
  <circle cx="100" cy="125" r="3" fill="#ffd700"/>
  <rect x="98" y="135" width="4" height="8" fill="#b71c1c"/>
  
  <!-- Head -->
  <circle cx="100" cy="80" r="40" fill="url(#trumpFaceGradient)"/>
  
  <!-- Trump's distinctive hair -->
  <path d="M 60 55 Q 75 35 100 38 Q 125 35 140 55 Q 135 45 125 50 Q 110 40 100 42 Q 90 40 75 50 Q 65 45 60 55" fill="url(#trumpHairGradient)"/>
  <path d="M 95 40 Q 105 35 115 42 Q 110 38 105 40 Q 100 38 95 40" fill="url(#trumpHairGradient)"/>
  
  <!-- Trump's Eyes -->
  <ellipse cx="90" cy="75" rx="8" ry="6" fill="#fff"/>
  <ellipse cx="110" cy="75" rx="8" ry="6" fill="#fff"/>
  <circle cx="90" cy="75" r="4" fill="#4a90e2"/>
  <circle cx="110" cy="75" r="4" fill="#4a90e2"/>
  <circle cx="91" cy="74" r="2" fill="#000"/>
  <circle cx="111" cy="74" r="2" fill="#000"/>
  
  <!-- Eyebrows -->
  <path d="M 80 68 Q 90 65 98 68" stroke="#d2691e" stroke-width="3" fill="none" stroke-linecap="round"/>
  <path d="M 102 68 Q 110 65 120 68" stroke="#d2691e" stroke-width="3" fill="none" stroke-linecap="round"/>
  
  <!-- Trump's distinctive smile/mouth -->
  <ellipse cx="100" cy="92" rx="12" ry="4" fill="#d4584a"/>
  <path d="M 90 90 Q 100 95 110 90" stroke="#b8321f" stroke-width="2" fill="none" stroke-linecap="round"/>
  
  <!-- Nose -->
  <ellipse cx="100" cy="82" rx="4" ry="6" fill="url(#noseGradient)"/>
  
  <!-- Arms in confident pose -->
  <ellipse cx="55" cy="125" rx="15" ry="30" fill="url(#suitGradient)" transform="rotate(-25 55 125)"/>
  <ellipse cx="145" cy="125" rx="15" ry="30" fill="url(#suitGradient)" transform="rotate(25 145 125)"/>
  
  <!-- Hands with casino chips -->
  <g id="leftHand" transform="translate(40,140) rotate(-30)">
    <circle cx="0" cy="0" r="10" fill="url(#handGradient)"/>
    <!-- Casino chip -->
    <circle cx="-5" cy="-8" r="5" fill="#ff4757" stroke="#fff" stroke-width="1"/>
    <text x="-5" y="-6" font-family="Arial" font-size="4" fill="#fff" text-anchor="middle">$100</text>
  </g>
  
  <g id="rightHand" transform="translate(160,140) rotate(30)">
    <circle cx="0" cy="0" r="10" fill="url(#handGradient)"/>
    <!-- Casino chip -->
    <circle cx="5" cy="-8" r="5" fill="#2ed573" stroke="#fff" stroke-width="1"/>
    <text x="5" y="-6" font-family="Arial" font-size="4" fill="#fff" text-anchor="middle">$500</text>
  </g>
  
  <!-- Bow tie -->
  <polygon points="90,115 110,115 105,120 110,125 90,125 95,120" fill="#ff6348"/>
  <rect x="98" y="117" width="4" height="6" fill="#c23616"/>
  
  <!-- Name badge (VIP style) -->
  <rect x="70" y="170" width="60" height="20" rx="5" fill="url(#badgeGradient)" stroke="#ffd700" stroke-width="2"/>
  <text x="100" y="177" font-family="Arial" font-size="8" fill="#fff" text-anchor="middle" font-weight="bold">CASINO HOST</text>
    <text x="100" y="186" font-family="Arial" font-size="10" fill="#ffd700" text-anchor="middle" font-weight="bold">DONNY BOY</text>
  
  <!-- Floating casino elements -->
  <g id="floatingElements">
    <!-- Dice -->
    <g transform="translate(35,45)">
      <rect x="0" y="0" width="12" height="12" rx="2" fill="#fff" stroke="#ddd">
        <animateTransform attributeName="transform" type="rotate" values="0 6 6;360 6 6" dur="4s" repeatCount="indefinite"/>
      </rect>
      <circle cx="3" cy="3" r="1" fill="#333"/>
      <circle cx="9" cy="9" r="1" fill="#333"/>
      <circle cx="3" cy="9" r="1" fill="#333"/>
      <circle cx="9" cy="3" r="1" fill="#333"/>
    </g>
    
    <!-- Playing card -->
    <g transform="translate(155,35)">
      <rect x="0" y="0" width="15" height="20" rx="2" fill="#fff" stroke="#ddd">
        <animateTransform attributeName="transform" type="rotate" values="0 7.5 10;-10 7.5 10;0 7.5 10" dur="3s" repeatCount="indefinite"/>
      </rect>
      <text x="7.5" y="8" font-family="Arial" font-size="6" fill="#ff4757" text-anchor="middle">A</text>
      <text x="7.5" y="16" font-family="Arial" font-size="8" fill="#ff4757" text-anchor="middle">♠</text>
    </g>
    
    <!-- Gold coins -->
    <circle cx="45" cy="160" r="4" fill="#ffd700" stroke="#ffbe00" stroke-width="1">
      <animate attributeName="cy" values="160;155;160" dur="2s" repeatCount="indefinite"/>
    </circle>
    <circle cx="155" cy="165" r="3" fill="#ffd700" stroke="#ffbe00" stroke-width="1">
      <animate attributeName="cy" values="165;170;165" dur="2.5s" repeatCount="indefinite"/>
    </circle>
  </g>
  
  <!-- Sparkle effects -->
  <g id="luxurySparkles">
    <g transform="translate(75,50)">
      <path d="M0,-8 L2,0 L8,0 L2,2 L0,8 L-2,2 L-8,0 L-2,0 Z" fill="#ffd700" opacity="0.8">
        <animateTransform attributeName="transform" type="scale" values="0.5;1;0.5" dur="2s" repeatCount="indefinite"/>
      </path>
    </g>
    <g transform="translate(125,55)">
      <path d="M0,-6 L1.5,0 L6,0 L1.5,1.5 L0,6 L-1.5,1.5 L-6,0 L-1.5,0 Z" fill="#ffd700" opacity="0.6">
        <animateTransform attributeName="transform" type="scale" values="0.3;0.8;0.3" dur="2.8s" repeatCount="indefinite"/>
      </path>
    </g>
    <g transform="translate(60,130)">
      <path d="M0,-4 L1,0 L4,0 L1,1 L0,4 L-1,1 L-4,0 L-1,0 Z" fill="#ffd700" opacity="0.7">
        <animateTransform attributeName="transform" type="scale" values="0.4;0.9;0.4" dur="1.8s" repeatCount="indefinite"/>
      </path>
    </g>
  </g>
  
  <!-- Gradients and effects -->
  <defs>
    <radialGradient id="casinoGlow" cx="50%" cy="40%">
      <stop offset="0%" stop-color="#1a1a2e"/>
      <stop offset="70%" stop-color="#16213e"/>
      <stop offset="100%" stop-color="#0f1419"/>
    </radialGradient>
    
    <linearGradient id="goldBorder" x1="0%" y1="0%" x2="100%" y2="100%">
      <stop offset="0%" stop-color="#ffd700"/>
      <stop offset="50%" stop-color="#ffed4e"/>
      <stop offset="100%" stop-color="#f39c12"/>
    </linearGradient>
    
    <linearGradient id="trumpFaceGradient" x1="0%" y1="0%" x2="0%" y2="100%">
      <stop offset="0%" stop-color="#ffb347"/>
      <stop offset="50%" stop-color="#ff8c42"/>
      <stop offset="100%" stop-color="#ff7518"/>
    </linearGradient>
    
    <linearGradient id="suitGradient" x1="0%" y1="0%" x2="0%" y2="100%">
      <stop offset="0%" stop-color="#2d3436"/>
      <stop offset="100%" stop-color="#636e72"/>
    </linearGradient>
    
    <linearGradient id="shirtGradient" x1="0%" y1="0%" x2="0%" y2="100%">
      <stop offset="0%" stop-color="#ffffff"/>
      <stop offset="100%" stop-color="#f8f9fa"/>
    </linearGradient>
    
    <linearGradient id="trumpTieGradient" x1="0%" y1="0%" x2="0%" y2="100%">
      <stop offset="0%" stop-color="#f44336"/>
      <stop offset="50%" stop-color="#d32f2f"/>
      <stop offset="100%" stop-color="#b71c1c"/>
    </linearGradient>
    
    <linearGradient id="trumpHairGradient" x1="0%" y1="0%" x2="0%" y2="100%">
      <stop offset="0%" stop-color="#ffd700"/>
      <stop offset="50%" stop-color="#ffb347"/>
      <stop offset="100%" stop-color="#d2691e"/>
    </linearGradient>
    
    <linearGradient id="noseGradient" x1="0%" y1="0%" x2="0%" y2="100%">
      <stop offset="0%" stop-color="#ffb347"/>
      <stop offset="100%" stop-color="#ff8c42"/>
    </linearGradient>
    
    <linearGradient id="handGradient" x1="0%" y1="0%" x2="0%" y2="100%">
      <stop offset="0%" stop-color="#ffeaa7"/>
      <stop offset="100%" stop-color="#fdcb6e"/>
    </linearGradient>
    
    <linearGradient id="badgeGradient" x1="0%" y1="0%" x2="0%" y2="100%">
      <stop offset="0%" stop-color="#2d3436"/>
      <stop offset="100%" stop-color="#636e72"/>
    </linearGradient>
    
    <linearGradient id="aviatorLens" x1="0%" y1="0%" x2="100%" y2="100%">
      <stop offset="0%" stop-color="#74b9ff"/>
      <stop offset="50%" stop-color="#0984e3"/>
      <stop offset="100%" stop-color="#2d3436"/>
    </linearGradient>
  </defs>
</svg>